HIERARCHY
ROOT Hips
{
	OFFSET 0.00000 0.00000 0.00000
	CHANNELS 6 Xposition Yposition Zposition Zrotation Yrotation Xrotation 
	JOINT LHipJoint
	{
		OFFSET 0 0 0
		CHANNELS 3 Zrotation Yrotation Xrotation
		JOINT LeftHip
		{
			OFFSET 1.88772 -1.62769 0.85636
			CHANNELS 3 Zrotation Yrotation Xrotation
			JOINT LeftKnee
			{
				OFFSET 2.39836 -6.58946 0.00000
				CHANNELS 3 Zrotation Yrotation Xrotation
				JOINT LeftAnkle
				{
					OFFSET 2.78523 -7.65237 0.00000
					CHANNELS 3 Zrotation Yrotation Xrotation
					JOINT LeftToe
					{
						OFFSET 0.19551 -0.53715 1.90694
						CHANNELS 3 Zrotation Yrotation Xrotation
						End Site
						{
							OFFSET 0.00000 -0.00000 0.99735
						}
					}
				}
			}
		}
	}
	JOINT RHipJoint
	{
		OFFSET 0 0 0
		CHANNELS 3 Zrotation Yrotation Xrotation
		JOINT RightHip
		{
			OFFSET -1.74282 -1.62769 0.85636
			CHANNELS 3 Zrotation Yrotation Xrotation
			JOINT RightKnee
			{
				OFFSET -2.36062 -6.48575 0.00000
				CHANNELS 3 Zrotation Yrotation Xrotation
				JOINT RightAnkle
				{
					OFFSET -2.76258 -7.59014 0.00000
					CHANNELS 3 Zrotation Yrotation Xrotation
					JOINT RightToe
					{
						OFFSET -0.19308 -0.53048 2.03952
						CHANNELS 3 Zrotation Yrotation Xrotation
						End Site
						{
							OFFSET -0.00000 -0.00000 1.06031
						}
					}
				}
			}
		}
	}
	JOINT lowerback
	{
		OFFSET 0 0 0
		CHANNELS 3 Zrotation Yrotation Xrotation
		JOINT Chest
		{
			OFFSET -0.08299 2.03160 -0.30721
			CHANNELS 3 Zrotation Yrotation Xrotation
			JOINT Chest2
			{
				OFFSET -0.01030 2.00603 0.13891
				CHANNELS 3 Zrotation Yrotation Xrotation
				JOINT lowerneck
				{
					OFFSET 0 0 0
					CHANNELS 3 Zrotation Yrotation Xrotation
					JOINT Neck
					{
						OFFSET 0.04282 1.69578 0.19991
						CHANNELS 3 Zrotation Yrotation Xrotation
						JOINT Head
						{
							OFFSET -0.08665 1.66622 -0.03785
							CHANNELS 3 Zrotation Yrotation Xrotation
							End Site
							{
								OFFSET -0.03699 1.83329 -0.04094
							}
						}
					}
				}
				JOINT LeftCollar
				{
					OFFSET 0 0 0
					CHANNELS 3 Zrotation Yrotation Xrotation
					JOINT LeftShoulder
					{
						OFFSET 3.04219 1.50803 -0.05347
CHANNELS 3 Zrotation Xrotation Yrotation
						JOINT LeftElbow
						{
OFFSET 0 -5.791990 0.000000
CHANNELS 3 Zrotation Xrotation Yrotation
							JOINT LeftWrist
							{
OFFSET 0 -3.499080 0.000000
CHANNELS 3 Zrotation Xrotation Yrotation
								JOINT lhand
								{
									OFFSET 0 0 0
CHANNELS 3 Zrotation Xrotation Yrotation
									JOINT LFingers
									{
OFFSET 0 -0.593860 0.000000
CHANNELS 3 Zrotation Xrotation Yrotation
										End Site
										{
OFFSET 0 -0.478790 0.000000
										}
									}
								}
								JOINT LThumb
								{
OFFSET 0 0.000000 0.000000
CHANNELS 3 Zrotation Xrotation Yrotation
									End Site
									{
OFFSET 0 -0.486100 0.486100
									}
								}
							}
						}
					}
				}
				JOINT RightCollar
				{
					OFFSET 0 0 0
					CHANNELS 3 Zrotation Yrotation Xrotation
					JOINT RightShoulder
					{
						OFFSET -3.30316 1.18853 0.11175
CHANNELS 3 Zrotation Xrotation Yrotation
						JOINT RightElbow
						{
OFFSET 0 -5.737990 0.000000
CHANNELS 3 Zrotation Xrotation Yrotation
							JOINT RightWrist
							{
OFFSET 0 -3.579160 -0.000000
CHANNELS 3 Zrotation Xrotation Yrotation
								JOINT rhand
								{
									OFFSET 0 0 0
CHANNELS 3 Zrotation Xrotation Yrotation
									JOINT RFingers
									{
OFFSET 0 -0.615580 0.000000
CHANNELS 3 Zrotation Xrotation Yrotation
										End Site
										{
OFFSET 0 -0.496290 0.000000
										}
									}
								}
								JOINT RThumb
								{
OFFSET 0 0.000000 0.000000
CHANNELS 3 Zrotation Xrotation Yrotation
									End Site
									{
OFFSET 0 -0.503870 0.503870
									}
								}
							}
						}
					}
				}
			}
		}
	}
}
MOTION
Frames: 11
Frame Time: 0.008333333333333333
19.395500 17.369600 -11.620400 4.842000 -52.482500 3.238000 0.000000 0.000000 0.000000 -23.714900 -8.021300 -21.669800 3.254600 11.096200 32.604900 1.211100 2.450700 -21.803000 0.052700 1.482000 4.076200 0.000000 0.000000 0.000000 13.320500 4.916400 -19.254300 -4.625300 -12.949000 39.177800 -0.981400 -7.495100 -22.857300 -0.026500 1.051100 -2.889500 -7.324900 0.338100 2.606600 -1.373400 0.036700 -2.684600 2.676300 0.210100 -4.266600 2.323400 1.527700 -5.873500 -3.946800 2.075900 4.586600 -1.594000 0.948100 2.561800 0.000000 0.000000 0.000000 15.558100 8.922400 -28.152500 24.169500 -35.342900 7.804400 16.406200 -27.684300 21.950100 0.000000 0.000000 0.000000 -7.125000 0.000000 0.000000 -7.808000 7.365900 -6.807700 0.000000 0.000000 0.000000 -7.538100 20.799800 36.419100 -23.174300 -34.278900 -7.236300 -14.133500 2.504200 30.608100 0.000000 0.000000 0.000000 7.125000 0.000000 -0.000000 20.053100 60.234700 -7.633700
19.329796 17.438860 -11.609962 4.278213 -50.854394 4.469550 0.000000 0.000000 0.000000 -23.411624 -7.709315 -22.444517 3.286132 11.144421 32.768541 1.214868 1.375696 -21.365392 0.016569 0.813429 2.235707 0.000000 0.000000 0.000000 11.892892 9.536743 -18.222125 -3.997960 -12.157727 36.292316 -1.028050 -7.405452 -23.189521 -0.006446 0.447160 -1.228802 -7.394262 0.210563 2.386075 -1.272624 -0.140201 -3.150596 2.829111 0.147751 -4.613537 1.367677 0.567585 -5.830551 -2.237303 0.769519 4.282025 -0.920343 0.337436 2.377894 0.000000 0.000000 0.000000 15.501086 8.508282 -31.628738 29.240586 -40.233295 10.915852 12.730118 -28.771987 22.222252 0.000000 0.000000 0.000000 -7.125000 0.000000 0.000000 -10.132025 7.543810 -8.857411 0.000000 0.000000 0.000000 -7.617857 20.814759 38.160188 -24.356025 -35.538397 -7.912572 -17.077368 3.324586 31.034922 0.000000 0.000000 0.000000 7.125000 0.000000 0.000000 17.208460 61.347462 -6.961449
19.228175 17.425022 -11.671554 3.434590 -50.946756 4.652646 0.000000 0.000000 0.000000 -22.408135 -7.838166 -21.943808 3.358258 11.253587 33.139891 1.301179 1.047171 -21.961199 0.023956 0.962324 2.645506 0.000000 0.000000 0.000000 11.117860 12.061987 -16.395417 -3.406608 -11.325875 33.386900 -0.784648 -9.653641 -22.881972 -0.002300 -0.263725 0.724569 -6.853550 0.445403 2.474157 -1.048722 0.224376 -2.794296 2.738720 0.300313 -4.320502 1.810635 -0.166329 -6.312451 -2.359358 -0.254357 3.733473 -1.074578 -0.170112 2.265653 0.000000 0.000000 0.000000 14.247831 8.624796 -32.018340 30.532567 -41.345436 11.759880 13.016182 -29.026601 22.918460 0.000000 0.000000 0.000000 -7.125000 0.000000 0.000000 -9.978933 6.815040 -8.863164 0.000000 0.000000 0.000000 -8.949589 19.380909 40.331031 -26.697836 -37.887153 -9.313925 -15.813694 1.844475 28.588066 0.000000 0.000000 0.000000 7.125000 0.000000 0.000000 16.793214 58.786486 -5.544977
19.008677 17.336024 -11.775083 4.872998 -51.519784 3.385137 0.000000 0.000000 0.000000 -22.170609 -9.463991 -19.367706 2.968969 10.644687 31.090723 1.546185 -3.171032 -22.707102 2.529560 9.806470 28.420137 0.000000 0.000000 0.000000 8.561170 14.573693 -16.340369 -3.278479 -11.132723 32.728683 -0.945622 -10.546610 -25.019817 -0.120345 -2.180161 6.006394 -6.566374 0.884362 2.241775 -1.867475 0.779704 -3.172172 1.691238 0.563145 -4.621720 1.586291 -0.761720 -5.947543 -1.001844 -1.093566 3.989293 -0.631703 -0.548995 2.266195 0.000000 0.000000 0.000000 14.664003 10.438697 -32.438076 26.908255 -38.091119 9.442653 12.674355 -28.006098 22.236729 0.000000 0.000000 0.000000 -7.125000 0.000000 0.000000 -10.167520 7.535780 -8.891082 0.000000 0.000000 0.000000 -8.269501 19.066007 40.670188 -30.381382 -41.217180 -11.660432 -23.034547 5.014493 32.092046 0.000000 0.000000 0.000000 7.125000 0.000000 0.000000 11.233769 63.914224 -5.182244
18.674861 17.385898 -12.004539 4.443633 -50.793862 3.713701 0.000000 0.000000 0.000000 -20.765673 -8.479379 -20.308100 3.093571 10.844929 31.758773 1.365691 0.588524 -22.318086 0.067059 1.659538 4.565922 0.000000 0.000000 0.000000 7.929507 19.146200 -13.848270 -2.687808 -10.171554 29.534076 -0.564145 -9.134677 -20.331977 -0.145908 2.459316 -6.776953 -6.088693 0.757843 2.355407 -1.441919 0.634565 -3.393832 1.872111 0.495947 -4.903289 1.198426 -1.040364 -6.228699 -0.855310 -1.444869 3.951828 -0.533607 -0.726238 2.303002 0.000000 0.000000 0.000000 13.720594 11.551898 -29.730243 19.966735 -30.601830 5.514639 14.884097 -24.114558 21.558565 0.000000 0.000000 0.000000 -7.125000 0.000000 0.000000 -8.749583 7.955307 -7.545089 0.000000 0.000000 0.000000 -8.802925 18.672910 40.538534 -32.742795 -43.131374 -13.245884 -22.213166 4.640970 32.992280 0.000000 0.000000 0.000000 7.125000 0.000000 0.000000 12.916335 64.578271 -6.168901
18.268776 17.344846 -12.309301 7.136036 -49.292060 0.882082 0.000000 0.000000 0.000000 -21.309967 -10.333513 -17.743277 2.927484 10.576600 30.865083 1.420189 1.778229 -23.220360 0.028051 1.042445 2.866019 0.000000 0.000000 0.000000 8.151691 15.476864 -14.268061 -2.995575 -10.687776 31.234194 -0.934881 -7.947425 -22.791948 -0.371052 3.870458 -10.717645 -7.515892 0.345624 2.363976 -1.598622 0.030878 -2.986929 2.547707 0.220545 -4.447488 0.636098 -1.060106 -5.774158 -1.004994 -1.418889 3.096621 -0.472795 -0.725828 1.940974 0.000000 0.000000 0.000000 12.638332 11.660476 -20.529975 14.713440 -23.744941 3.109894 12.663294 -17.737379 20.366908 0.000000 0.000000 0.000000 -7.125000 0.000000 0.000000 -10.120969 9.405554 -8.467681 0.000000 0.000000 0.000000 -9.016894 17.531666 41.933991 -30.727359 -41.508291 -11.888949 -21.973306 4.242150 32.317724 0.000000 0.000000 0.000000 7.125000 0.000000 0.000000 12.665425 63.848680 -5.838591
17.868692 17.325342 -12.648075 8.705644 -49.012955 -0.141787 0.000000 0.000000 0.000000 -20.668414 -11.227092 -17.108638 2.856052 10.458360 30.474117 1.370965 3.446434 -23.595559 0.030857 -0.621573 -1.709411 0.000000 0.000000 0.000000 9.595468 16.760263 -12.768874 -2.810575 -10.381911 30.222613 -1.376173 -9.152700 -27.172839 -0.017383 -0.851158 2.339361 -8.451427 0.399831 1.588100 -1.688298 0.137643 -2.979300 2.971280 0.284262 -4.020906 0.592460 -1.249420 -5.460856 -1.218628 -1.658452 3.011101 -0.536713 -0.850544 1.853143 0.000000 0.000000 0.000000 11.584623 12.233163 -14.051107 13.610231 -22.174734 2.679213 11.995095 -14.581745 20.069050 0.000000 0.000000 0.000000 -7.125000 0.000000 0.000000 -10.542289 9.771348 -8.753413 0.000000 0.000000 0.000000 -7.726116 14.292274 40.344614 -24.355824 -35.536323 -7.913186 -21.994382 5.255399 33.805236 0.000000 0.000000 0.000000 7.125000 0.000000 0.000000 13.866555 65.313040 -6.857483
17.634466 17.322143 -12.855520 6.170234 -48.230136 2.151735 0.000000 0.000000 0.000000 -17.682170 -13.392749 -16.879851 2.938349 10.594580 30.924467 1.456670 3.939525 -24.513403 0.006663 0.503233 1.382725 0.000000 0.000000 0.000000 12.723726 17.120028 -11.927856 -2.640140 -10.088446 29.263500 -1.572792 -9.147707 -28.542990 -0.137285 -2.387425 6.577623 -6.262849 0.291291 1.196755 -0.658894 0.141721 -3.182601 2.820723 0.245967 -3.987289 -0.031634 -1.390273 -6.610352 -1.108339 -1.790377 4.324288 -0.423077 -0.927779 2.501859 0.000000 0.000000 0.000000 9.500550 13.041372 -16.812676 15.702781 -25.115984 3.518907 10.184738 -17.255897 19.740870 0.000000 0.000000 0.000000 -7.125000 0.000000 0.000000 -11.697737 10.270514 -9.632943 0.000000 0.000000 0.000000 -8.697833 13.211904 38.572849 -22.090845 -33.079524 -6.635379 -20.470433 5.083568 34.136985 0.000000 0.000000 0.000000 7.125000 0.000000 0.000000 15.993979 65.198710 -7.908956
17.510769 17.344202 -12.958720 2.062266 -47.419154 4.388155 0.000000 0.000000 0.000000 -14.146001 -13.746107 -15.527518 2.883183 10.503511 30.623164 1.628922 2.368848 -25.064790 0.221266 3.027794 8.356107 0.000000 0.000000 0.000000 16.983011 18.028618 -9.340058 -2.424444 -9.699150 28.007814 -1.748881 -9.642979 -30.051958 -0.719224 -5.418936 15.107560 -2.830125 0.183443 1.923074 0.275427 0.131541 -3.036359 1.863673 0.155451 -4.217927 -0.376815 -1.516101 -5.885812 -0.849613 -1.953486 3.443830 -0.273354 -1.002510 2.081034 0.000000 0.000000 0.000000 9.188102 13.234065 -23.735791 19.829952 -30.436145 5.445227 8.539423 -20.058378 20.381737 0.000000 0.000000 0.000000 -7.125000 0.000000 0.000000 -12.746369 9.784138 -10.669293 0.000000 0.000000 0.000000 -9.368126 13.589985 38.118371 -22.490151 -33.526484 -6.854564 -20.477939 3.023379 32.815717 0.000000 0.000000 0.000000 7.125000 0.000000 0.000000 14.810340 63.933169 -6.870218
17.398918 17.342553 -13.035483 4.483369 -46.433247 3.581304 0.000000 0.000000 0.000000 -15.389070 -14.268690 -16.107839 2.746821 10.273490 29.866864 1.410005 3.345913 -23.853325 0.002531 -0.320149 -0.879645 0.000000 0.000000 0.000000 15.493326 19.288544 -10.076142 -2.560492 -9.947059 28.805629 -1.903364 -10.736247 -31.782281 -0.700751 -5.350236 14.910406 -5.246867 0.200173 0.971523 -0.063823 0.083105 -3.405213 2.871494 0.202992 -4.078149 0.055481 -1.714209 -6.225046 -1.641494 -2.206264 4.041364 -0.617211 -1.148485 2.327136 0.000000 0.000000 0.000000 9.758459 12.180952 -28.720332 24.112055 -35.282330 7.771230 9.087102 -22.815276 20.921190 0.000000 0.000000 0.000000 -7.125000 0.000000 0.000000 -12.401534 9.203462 -10.511112 0.000000 0.000000 0.000000 -9.632825 14.703161 38.166506 -22.335076 -33.353554 -6.769192 -23.278147 3.267486 32.881282 0.000000 0.000000 0.000000 7.125000 0.000000 0.000000 11.552252 64.763635 -5.559285
17.348755 17.324213 -13.016596 6.654520 -46.689280 1.546148 0.000000 0.000000 0.000000 -17.244950 -13.836479 -14.560815 2.512499 9.860487 28.526228 1.332907 4.340836 -23.759799 0.020323 -0.918582 -2.524813 0.000000 0.000000 0.000000 13.914854 18.191252 -10.639357 -2.789148 -10.345434 30.102928 -2.055512 -9.517416 -31.868861 -0.601181 -4.958845 13.792044 -6.916147 0.217633 0.852224 -0.456686 0.063404 -3.113311 3.400414 0.220811 -3.718885 0.265436 -1.321165 -6.214513 -2.135111 -1.676508 3.852238 -0.788351 -0.895823 2.263288 0.000000 0.000000 0.000000 10.710193 11.654461 -31.962349 27.623485 -38.767059 9.887141 12.113379 -25.376419 21.722419 0.000000 0.000000 0.000000 -7.125000 0.000000 0.000000 -10.504291 8.110836 -9.074744 0.000000 0.000000 0.000000 -10.006597 14.547176 39.087910 -21.281186 -32.154312 -6.199279 -17.701204 2.598783 31.612049 0.000000 0.000000 0.000000 7.125000 0.000000 0.000000 17.184845 62.015608 -7.371831
